<?xml version="1.0" standalone="no"?>
<!DOCTYPE svg PUBLIC "-//W3C//DTD SVG 20010904//EN"
 "http://www.w3.org/TR/2001/REC-SVG-20010904/DTD/svg10.dtd">
<svg version="1.0" xmlns="http://www.w3.org/2000/svg"
 width="329.000000pt" height="329.000000pt" viewBox="0 0 329.000000 329.000000"
 preserveAspectRatio="xMidYMid meet">
<metadata>
Created by potrace 1.14, written by Peter Selinger 2001-2017
</metadata>
<g transform="translate(0.000000,329.000000) scale(0.100000,-0.100000)"
fill="#000000" stroke="none">
<path d="M1499 3286 c-2 -2 -26 -6 -54 -10 -87 -10 -130 -17 -145 -23 -8 -3
-28 -7 -45 -10 -16 -3 -77 -20 -134 -39 -561 -188 -978 -666 -1092 -1255 -30
-154 -32 -459 -5 -592 42 -200 110 -387 189 -522 147 -249 351 -458 584 -598
186 -112 427 -197 633 -224 79 -10 368 -9 430 1 25 4 59 9 75 12 81 13 237 59
327 95 108 45 251 120 284 150 11 10 24 19 28 19 14 0 137 100 215 175 238
226 406 540 473 880 23 118 31 383 15 515 -29 231 -129 491 -275 710 -86 130
-249 302 -372 392 -204 150 -481 270 -700 303 -25 4 -54 9 -65 12 -25 5 -361
14 -366 9z"/>
</g>
</svg>
